<mxfile host="app.diagrams.net" modified="2023-11-26T19:07:23.176Z" agent="Mozilla/5.0 (Windows NT 10.0; Win64; x64) AppleWebKit/537.36 (KHTML, like Gecko) Chrome/119.0.0.0 Safari/537.36" etag="1_gv6o2o-DKsVDpiURzl" version="22.1.4" type="google">
  <diagram name="Página-1" id="n6TLfND3LST2ynLtIxYY">
    <mxGraphModel grid="1" page="1" gridSize="10" guides="1" tooltips="1" connect="1" arrows="1" fold="1" pageScale="1" pageWidth="827" pageHeight="1169" math="0" shadow="0">
      <root>
        <mxCell id="0" />
        <mxCell id="1" parent="0" />
        <mxCell id="K9sMG0H9KpZLSvr28Ce5-1" value="Cliente" style="shape=umlActor;verticalLabelPosition=bottom;verticalAlign=top;html=1;outlineConnect=0;" vertex="1" parent="1">
          <mxGeometry x="10" y="445" width="30" height="70" as="geometry" />
        </mxCell>
        <mxCell id="K9sMG0H9KpZLSvr28Ce5-4" value="Cadastrar Cliente" style="ellipse;whiteSpace=wrap;html=1;" vertex="1" parent="1">
          <mxGeometry x="30" y="290" width="120" height="80" as="geometry" />
        </mxCell>
        <mxCell id="K9sMG0H9KpZLSvr28Ce5-6" value="Fazer Login" style="ellipse;whiteSpace=wrap;html=1;" vertex="1" parent="1">
          <mxGeometry x="130" y="440" width="120" height="80" as="geometry" />
        </mxCell>
        <mxCell id="K9sMG0H9KpZLSvr28Ce5-7" value="Colocar no carrinho" style="ellipse;whiteSpace=wrap;html=1;" vertex="1" parent="1">
          <mxGeometry x="313" y="720" width="120" height="80" as="geometry" />
        </mxCell>
        <mxCell id="K9sMG0H9KpZLSvr28Ce5-8" value="Acessar Loja" style="ellipse;whiteSpace=wrap;html=1;" vertex="1" parent="1">
          <mxGeometry x="313" y="570" width="120" height="80" as="geometry" />
        </mxCell>
        <mxCell id="K9sMG0H9KpZLSvr28Ce5-21" value="Acessar carrinho" style="ellipse;whiteSpace=wrap;html=1;" vertex="1" parent="1">
          <mxGeometry x="507" y="570" width="120" height="80" as="geometry" />
        </mxCell>
        <mxCell id="K9sMG0H9KpZLSvr28Ce5-25" value="Visualizar interface&amp;nbsp;" style="ellipse;whiteSpace=wrap;html=1;" vertex="1" parent="1">
          <mxGeometry x="313" y="440" width="120" height="80" as="geometry" />
        </mxCell>
        <mxCell id="M1nOs3E-OvUYg1OBMXoM-1" style="rounded=0;orthogonalLoop=1;jettySize=auto;html=1;entryX=0.5;entryY=0.5;entryDx=0;entryDy=0;entryPerimeter=0;endArrow=none;endFill=0;" edge="1" parent="1" source="K9sMG0H9KpZLSvr28Ce5-6" target="K9sMG0H9KpZLSvr28Ce5-1">
          <mxGeometry relative="1" as="geometry" />
        </mxCell>
        <mxCell id="M1nOs3E-OvUYg1OBMXoM-4" value="Finalizar compra" style="ellipse;whiteSpace=wrap;html=1;" vertex="1" parent="1">
          <mxGeometry x="697" y="500" width="120" height="80" as="geometry" />
        </mxCell>
        <mxCell id="M1nOs3E-OvUYg1OBMXoM-6" value="&amp;lt;&amp;lt;include&amp;gt;&amp;gt;" style="html=1;verticalAlign=bottom;labelBackgroundColor=none;endArrow=open;endFill=0;dashed=1;rounded=0;exitX=1;exitY=0.5;exitDx=0;exitDy=0;entryX=0;entryY=0.5;entryDx=0;entryDy=0;" edge="1" parent="1" source="K9sMG0H9KpZLSvr28Ce5-6" target="K9sMG0H9KpZLSvr28Ce5-25">
          <mxGeometry x="-0.0476" width="160" relative="1" as="geometry">
            <mxPoint x="250" y="540" as="sourcePoint" />
            <mxPoint x="410" y="540" as="targetPoint" />
            <mxPoint as="offset" />
          </mxGeometry>
        </mxCell>
        <mxCell id="M1nOs3E-OvUYg1OBMXoM-7" value="Alterar senha" style="ellipse;whiteSpace=wrap;html=1;" vertex="1" parent="1">
          <mxGeometry x="240" y="290" width="120" height="80" as="geometry" />
        </mxCell>
        <mxCell id="M1nOs3E-OvUYg1OBMXoM-9" value="&amp;lt;&amp;lt;extend&amp;gt;&amp;gt;" style="html=1;verticalAlign=bottom;labelBackgroundColor=none;endArrow=open;endFill=0;dashed=1;rounded=0;entryX=1;entryY=0;entryDx=0;entryDy=0;exitX=0.5;exitY=1;exitDx=0;exitDy=0;" edge="1" parent="1" source="M1nOs3E-OvUYg1OBMXoM-7" target="K9sMG0H9KpZLSvr28Ce5-6">
          <mxGeometry width="160" relative="1" as="geometry">
            <mxPoint x="100" y="380" as="sourcePoint" />
            <mxPoint x="158" y="462" as="targetPoint" />
          </mxGeometry>
        </mxCell>
        <mxCell id="M1nOs3E-OvUYg1OBMXoM-11" value="&amp;lt;&amp;lt;extend&amp;gt;&amp;gt;" style="html=1;verticalAlign=bottom;labelBackgroundColor=none;endArrow=open;endFill=0;dashed=1;rounded=0;entryX=0.5;entryY=1;entryDx=0;entryDy=0;exitX=0.5;exitY=0;exitDx=0;exitDy=0;" edge="1" parent="1" source="K9sMG0H9KpZLSvr28Ce5-8" target="K9sMG0H9KpZLSvr28Ce5-25">
          <mxGeometry width="160" relative="1" as="geometry">
            <mxPoint x="275" y="600" as="sourcePoint" />
            <mxPoint x="207" y="682" as="targetPoint" />
          </mxGeometry>
        </mxCell>
        <mxCell id="M1nOs3E-OvUYg1OBMXoM-12" value="&amp;lt;&amp;lt;extend&amp;gt;&amp;gt;" style="html=1;verticalAlign=bottom;labelBackgroundColor=none;endArrow=open;endFill=0;dashed=1;rounded=0;exitX=0.5;exitY=0;exitDx=0;exitDy=0;entryX=0.5;entryY=1;entryDx=0;entryDy=0;" edge="1" parent="1" source="K9sMG0H9KpZLSvr28Ce5-7" target="K9sMG0H9KpZLSvr28Ce5-8">
          <mxGeometry x="-0.2" width="160" relative="1" as="geometry">
            <mxPoint x="367" y="690" as="sourcePoint" />
            <mxPoint x="427" y="670" as="targetPoint" />
            <mxPoint as="offset" />
          </mxGeometry>
        </mxCell>
        <mxCell id="M1nOs3E-OvUYg1OBMXoM-15" value="&amp;lt;&amp;lt;extend&amp;gt;&amp;gt;" style="html=1;verticalAlign=bottom;labelBackgroundColor=none;endArrow=open;endFill=0;dashed=1;rounded=0;exitX=0;exitY=0.5;exitDx=0;exitDy=0;entryX=1;entryY=0.5;entryDx=0;entryDy=0;" edge="1" parent="1" source="K9sMG0H9KpZLSvr28Ce5-21" target="K9sMG0H9KpZLSvr28Ce5-8">
          <mxGeometry x="-0.2" width="160" relative="1" as="geometry">
            <mxPoint x="383" y="730" as="sourcePoint" />
            <mxPoint x="383" y="660" as="targetPoint" />
            <mxPoint as="offset" />
          </mxGeometry>
        </mxCell>
        <mxCell id="M1nOs3E-OvUYg1OBMXoM-16" value="&amp;lt;&amp;lt;extend&amp;gt;&amp;gt;" style="html=1;verticalAlign=bottom;labelBackgroundColor=none;endArrow=open;endFill=0;dashed=1;rounded=0;exitX=0;exitY=0.5;exitDx=0;exitDy=0;entryX=1;entryY=0;entryDx=0;entryDy=0;" edge="1" parent="1" source="M1nOs3E-OvUYg1OBMXoM-4" target="K9sMG0H9KpZLSvr28Ce5-21">
          <mxGeometry x="-0.2" width="160" relative="1" as="geometry">
            <mxPoint x="771" y="609.5" as="sourcePoint" />
            <mxPoint x="677" y="609.5" as="targetPoint" />
            <mxPoint as="offset" />
          </mxGeometry>
        </mxCell>
        <mxCell id="xcXLnAr1kFvrA0ngF8GP-1" value="&amp;lt;&amp;lt;extend&amp;gt;&amp;gt;" style="html=1;verticalAlign=bottom;labelBackgroundColor=none;endArrow=open;endFill=0;dashed=1;rounded=0;entryX=1;entryY=0.5;entryDx=0;entryDy=0;exitX=0;exitY=0.5;exitDx=0;exitDy=0;" edge="1" parent="1" source="xcXLnAr1kFvrA0ngF8GP-2" target="K9sMG0H9KpZLSvr28Ce5-25">
          <mxGeometry width="160" relative="1" as="geometry">
            <mxPoint x="517" y="480" as="sourcePoint" />
            <mxPoint x="497" y="465" as="targetPoint" />
          </mxGeometry>
        </mxCell>
        <mxCell id="xcXLnAr1kFvrA0ngF8GP-2" value="Visalizar Estatísticas" style="ellipse;whiteSpace=wrap;html=1;" vertex="1" parent="1">
          <mxGeometry x="507" y="440" width="120" height="80" as="geometry" />
        </mxCell>
        <mxCell id="xcXLnAr1kFvrA0ngF8GP-4" value="Retirar item do Carrinho" style="ellipse;whiteSpace=wrap;html=1;" vertex="1" parent="1">
          <mxGeometry x="697" y="640" width="120" height="80" as="geometry" />
        </mxCell>
        <mxCell id="xcXLnAr1kFvrA0ngF8GP-5" value="&amp;lt;&amp;lt;extend&amp;gt;&amp;gt;" style="html=1;verticalAlign=bottom;labelBackgroundColor=none;endArrow=open;endFill=0;dashed=1;rounded=0;exitX=0;exitY=0.5;exitDx=0;exitDy=0;entryX=1;entryY=1;entryDx=0;entryDy=0;" edge="1" parent="1" source="xcXLnAr1kFvrA0ngF8GP-4" target="K9sMG0H9KpZLSvr28Ce5-21">
          <mxGeometry x="-0.2" width="160" relative="1" as="geometry">
            <mxPoint x="707" y="550" as="sourcePoint" />
            <mxPoint x="637" y="620" as="targetPoint" />
            <mxPoint as="offset" />
          </mxGeometry>
        </mxCell>
        <mxCell id="M1nOs3E-OvUYg1OBMXoM-5" value="&amp;lt;&amp;lt;extend&amp;gt;&amp;gt;" style="html=1;verticalAlign=bottom;labelBackgroundColor=none;endArrow=open;endFill=0;dashed=1;rounded=0;entryX=0;entryY=0;entryDx=0;entryDy=0;exitX=0.5;exitY=1;exitDx=0;exitDy=0;" edge="1" parent="1" source="K9sMG0H9KpZLSvr28Ce5-4" target="K9sMG0H9KpZLSvr28Ce5-6">
          <mxGeometry x="-0.0001" y="1" width="160" relative="1" as="geometry">
            <mxPoint x="120" y="410" as="sourcePoint" />
            <mxPoint x="280" y="410" as="targetPoint" />
            <mxPoint x="1" as="offset" />
          </mxGeometry>
        </mxCell>
      </root>
    </mxGraphModel>
  </diagram>
</mxfile>
